# xmcd CD database file
#
# Track frame offsets:
#	150
#	20642
#	42972
#	63380
#	83802
#	104465
#	121105
#	139667
#	158137
#	185292
#	207085
#	224245
#
# Disc length: 3236 seconds
#
# Revision: 11
# Processed by: cddbd v1.5.1PL2 Copyright (c) Steve Scherf et al.
# Submitted via: CDex 1.51
#
DISCID=a90ca20c
DTITLE=倖田來未 - Best 〜first things〜 Disc1
DYEAR=2005
DGENRE=JPop
TTITLE0=NO TRICKS
TTITLE1=TAKE BACK
TTITLE2=Trust Your Love
TTITLE3=COLOR OF SOUL
TTITLE4=So Into You
TTITLE5=love across the ocean
TTITLE6=m・a・z・e
TTITLE7=real Emotion
TTITLE8=1000の言葉
TTITLE9=COME WITH ME
TTITLE10=Gentle Words
TTITLE11=Crazy 4 U
EXTD=YEAR: 2005
EXTT0=
EXTT1=
EXTT2=
EXTT3=
EXTT4=
EXTT5=
EXTT6=
EXTT7=
EXTT8=
EXTT9=
EXTT10=
EXTT11=
PLAYORDER=
